HIERARCHY
ROOT hip
{
  OFFSET 0 0 0
  CHANNELS 6 Xposition Yposition Zposition Zrotation Yrotation Xrotation
  JOINT abdomen
  {
    OFFSET 0 20.6881 -0.73152
    CHANNELS 3 Zrotation Xrotation Yrotation
    JOINT chest
    {
      OFFSET 0 11.7043 -0.48768
      CHANNELS 3 Zrotation Xrotation Yrotation
      JOINT neck
      {
        OFFSET 0 22.1894 -2.19456
        CHANNELS 3 Zrotation Xrotation Yrotation
        JOINT head
        {
          OFFSET -0.24384 7.07133 1.2192
          CHANNELS 3 Zrotation Xrotation Yrotation
          JOINT leftEye
          {
            OFFSET 4.14528 8.04674 8.04672
            CHANNELS 3 Zrotation Xrotation Yrotation
            End Site
            {
              OFFSET 1 0 0
            }
          }
          JOINT rightEye
          {
            OFFSET -3.6576 8.04674 8.04672
            CHANNELS 3 Zrotation Xrotation Yrotation
            End Site
            {
              OFFSET 1 0 0
            }
          }
        }
      }
      JOINT rCollar
      {
        OFFSET -2.68224 19.2634 -4.8768
        CHANNELS 3 Zrotation Xrotation Yrotation
        JOINT rShldr
        {
          OFFSET -8.77824 -1.95073 1.46304
          CHANNELS 3 Zrotation Xrotation Yrotation
          JOINT rForeArm
          {
            OFFSET -28.1742 -1.7115 0.48768
            CHANNELS 3 Zrotation Xrotation Yrotation
            JOINT rHand
            {
              OFFSET -22.5879 0.773209 7.07136
              CHANNELS 3 Zrotation Xrotation Yrotation
              JOINT rThumb1
              {
                OFFSET -1.2192 -0.487915 3.41376
                CHANNELS 3 Zrotation Xrotation Yrotation
                JOINT rThumb2
                {
                  OFFSET -3.37035 -0.52449 3.41376
                  CHANNELS 3 Zrotation Xrotation Yrotation
                  End Site
                  {
                    OFFSET -1.78271 -1.18214 1.43049
                  }
                }
              }
              JOINT rIndex1
              {
                OFFSET -7.75947 0.938293 5.60832
                CHANNELS 3 Zrotation Xrotation Yrotation
                JOINT rIndex2
                {
                  OFFSET -2.54057 -0.884171 1.56538
                  CHANNELS 3 Zrotation Xrotation Yrotation
                  End Site
                  {
                    OFFSET -1.62519 -0.234802 1.16502
                  }
                }
              }
              JOINT rMid1
              {
                OFFSET -8.24714 1.18213 3.41376
                CHANNELS 3 Zrotation Xrotation Yrotation
                JOINT rMid2
                {
                  OFFSET -3.10165 -0.590103 1.0647
                  CHANNELS 3 Zrotation Xrotation Yrotation
                  End Site
                  {
                    OFFSET -2.48547 -0.328903 0.83742
                  }
                }
              }
              JOINT rRing1
              {
                OFFSET -8.82822 0.546677 1.51678
                CHANNELS 3 Zrotation Xrotation Yrotation
                JOINT rRing2
                {
                  OFFSET -2.60934 -0.819778 -0.0198488
                  CHANNELS 3 Zrotation Xrotation Yrotation
                  End Site
                  {
                    OFFSET -2.33842 -0.294052 0.168128
                  }
                }
              }
              JOINT rPinky1
              {
                OFFSET -8.27202 -0.0477905 -0.4584
                CHANNELS 3 Zrotation Xrotation Yrotation
                JOINT rPinky2
                {
                  OFFSET -1.82734 -0.647385 -0.700984
                  CHANNELS 3 Zrotation Xrotation Yrotation
                  End Site
                  {
                    OFFSET -1.69225 -0.51767 -0.607171
                  }
                }
              }
            }
          }
        }
      }
      JOINT lCollar
      {
        OFFSET 2.68224 19.2634 -4.8768
        CHANNELS 3 Zrotation Xrotation Yrotation
        JOINT lShldr
        {
          OFFSET 8.77824 -1.95073 1.46304
          CHANNELS 3 Zrotation Xrotation Yrotation
          JOINT lForeArm
          {
            OFFSET 28.1742 -1.7115 0.48768
            CHANNELS 3 Zrotation Xrotation Yrotation
            JOINT lHand
            {
              OFFSET 22.5879 0.773209 7.07136
              CHANNELS 3 Zrotation Xrotation Yrotation
              JOINT lThumb1
              {
                OFFSET 1.2192 -0.487915 3.41376
                CHANNELS 3 Zrotation Xrotation Yrotation
                JOINT lThumb2
                {
                  OFFSET 3.37035 -0.52449 3.41376
                  CHANNELS 3 Zrotation Xrotation Yrotation
                  End Site
                  {
                    OFFSET 1.78271 -1.18214 1.43049
                  }
                }
              }
              JOINT lIndex1
              {
                OFFSET 7.75947 0.938293 5.60832
                CHANNELS 3 Zrotation Xrotation Yrotation
                JOINT lIndex2
                {
                  OFFSET 2.54057 -0.884171 1.56538
                  CHANNELS 3 Zrotation Xrotation Yrotation
                  End Site
                  {
                    OFFSET 1.62519 -0.234802 1.16502
                  }
                }
              }
              JOINT lMid1
              {
                OFFSET 8.24714 1.18213 3.41376
                CHANNELS 3 Zrotation Xrotation Yrotation
                JOINT lMid2
                {
                  OFFSET 3.10165 -0.590103 1.0647
                  CHANNELS 3 Zrotation Xrotation Yrotation
                  End Site
                  {
                    OFFSET 2.48547 -0.328903 0.83742
                  }
                }
              }
              JOINT lRing1
              {
                OFFSET 8.82822 0.546677 1.51678
                CHANNELS 3 Zrotation Xrotation Yrotation
                JOINT lRing2
                {
                  OFFSET 2.60934 -0.819778 -0.0198488
                  CHANNELS 3 Zrotation Xrotation Yrotation
                  End Site
                  {
                    OFFSET 2.33842 -0.294052 0.168128
                  }
                }
              }
              JOINT lPinky1
              {
                OFFSET 8.27202 -0.0477905 -0.4584
                CHANNELS 3 Zrotation Xrotation Yrotation
                JOINT lPinky2
                {
                  OFFSET 1.82734 -0.647385 -0.700984
                  CHANNELS 3 Zrotation Xrotation Yrotation
                  End Site
                  {
                    OFFSET 1.69225 -0.51767 -0.607171
                  }
                }
              }
            }
          }
        }
      }
    }
  }
  JOINT rButtock
  {
    OFFSET -8.77824 4.35084 1.2192
    CHANNELS 3 Zrotation Xrotation Yrotation
    JOINT rThigh
    {
      OFFSET 0 -1.70687 -2.19456
      CHANNELS 3 Zrotation Xrotation Yrotation
      JOINT rShin
      {
        OFFSET 0 -36.8199 0.73152
        CHANNELS 3 Zrotation Xrotation Yrotation
        JOINT rFoot
        {
          OFFSET 0.73152 -45.1104 -5.12064
          CHANNELS 3 Zrotation Xrotation Yrotation
          End Site
          {
            OFFSET -1.1221 -3.69964 12.103
          }
        }
      }
    }
  }
  JOINT lButtock
  {
    OFFSET 8.77824 4.35084 1.2192
    CHANNELS 3 Zrotation Xrotation Yrotation
    JOINT lThigh
    {
      OFFSET 0 -1.70687 -2.19456
      CHANNELS 3 Zrotation Xrotation Yrotation
      JOINT lShin
      {
        OFFSET 0 -36.8199 0.73152
        CHANNELS 3 Zrotation Xrotation Yrotation
        JOINT lFoot
        {
          OFFSET -0.73152 -45.1104 -5.12064
          CHANNELS 3 Zrotation Xrotation Yrotation
          End Site
          {
            OFFSET 1.1221 -3.69964 12.103
          }
        }
      }
    }
  }
}
MOTION
Frames:	8
Frame Time:	0.03333
-17.6598 71.9627 -20.6763 -4.761403 49.026166 6.213532 1.199884 13.975803 4.910391 0.525007 -9.591789 -3.331913 -10.638163 21.610779 -24.592515 23.59941 -33.448397 0.009258 0.001842 0.0 0.003415 0.001111 -0.0 -0.001933 0.133253 -0.80708 -0.179182 71.131482 -11.614668 77.381937 -5.121202 27.706188 96.013037 -9.7396 -33.558569 -8.147443 -78.029958 38.69034 42.412925 -78.149553 -1.461778 62.27141 24.076975 -42.306153 -5.559145 -5.253155 27.139337 6.551624 -0.968094 2.779789 0.553437 2.408234 2.450524 0.312661 -145.122385 1.975285 -179.747133 11.432766 58.802516 -1.654651 0.098816 0.25852 0.089893 -159.517674 55.553865 -150.079743 155.537931 -3.733519 -161.884311 -77.784453 27.751316 104.26634 25.686375 66.32684 -86.993641 4.972251 22.057338 -1.078488 166.632524 -4.304457 -89.771056 23.866217 -35.33649 -6.754231 -37.214116 -57.918358 0.644175 83.070962 50.522383 -69.346341 142.381007 33.885676 -130.260364 172.141651 -31.381302 -143.72164 0.000985 -0.018492 0.005927 149.978201 38.866331 -164.833104 144.262051 9.237687 141.008996 -1.389578 -2.387152 2.75042 -0.0 0.000126 0.000972 14.091362 -47.968973 -101.807869 -74.857531 -15.829023 9.387078 -138.345796 -55.71753 -29.61745 -179.992151 75.750184 -0.005371 -179.251531 7.681233 -0.08531 -152.437776 85.713625 23.433294 58.671141 -16.424288 162.497182
-18.4345 72.3148 -21.6126 -3.836076 52.340969 6.723297 0.090352 13.546155 10.140155 0.790028 -9.409882 -7.523457 5.313101 24.347135 65.961422 -43.54552 -4.605717 -102.895478 0.003803 -0.0 -0.002126 0.004515 0.0 0.003157 -9.65132 34.836365 11.198393 -110.492556 24.9306 70.342297 -173.005091 -17.475914 -91.761203 -10.577137 -30.426278 -7.635252 -2.608477 2.554547 0.457462 -133.303141 -33.467366 115.799433 -138.092588 5.49426 114.614987 160.709004 -59.541906 101.540851 6.909984 -21.623852 -2.808823 130.623156 -77.054449 99.872036 -145.119723 0.267999 -179.211952 -150.658691 -33.839561 -173.356875 44.753627 86.377051 -5.387128 -162.014583 55.55905 -148.264243 -0.163212 -0.990066 0.21827 -57.414269 15.099878 -75.698241 176.139173 6.058366 -84.875995 -164.75538 -28.322977 -141.724607 -8.546648 -8.538555 0.683949 -2.226246 -7.007156 8.014165 100.823383 37.733849 -85.162398 -94.548283 -66.996573 -46.155239 160.674075 -6.667423 -143.246181 -8.923127 -17.162857 1.064282 145.099959 -1.520621 178.649173 -11.941921 26.395213 5.993372 138.834271 -5.322605 136.025813 156.095424 39.567027 146.322946 179.984195 75.748153 0.013004 -171.277768 27.83175 -3.942918 49.278568 64.925982 54.010895 -31.558286 4.236035 -133.784157 179.996778 75.749969 0.003324 -176.165156 9.623597 141.684937 102.661954 -63.501544 2.76656 -80.48363 49.091746 1.904864
-19.0999 72.8963 -22.6269 -3.025815 56.084032 7.270583 -0.017429 13.096074 0.076919 2.784076 -9.054595 2.361479 -8.562505 39.334337 -146.795233 38.933441 44.729088 94.705891 -0.000641 0.0 -0.002184 -0.000675 -0.0 0.000126 -155.614164 -4.236371 161.991106 104.002706 30.730269 -94.898776 -137.026053 -62.786528 94.688132 -165.902762 -0.238788 143.083074 113.262142 -50.39803 54.829706 -149.325774 8.838052 105.217965 10.212953 -18.050337 -4.562944 -64.49522 48.972034 51.287617 89.03554 -81.392783 59.760265 -2.386048 14.684584 2.845901 -145.119231 0.18614 -179.185228 -154.169668 -12.522957 -177.501985 -86.171576 -50.469666 -84.540305 -10.153627 -26.557704 -12.967189 155.417144 -2.951499 -161.71838 -129.85595 5.270274 117.952971 -174.509721 -14.319508 -82.367412 -168.400157 -19.700768 -143.622175 89.136775 38.427675 -50.298675 -16.350528 -24.999232 -22.714072 46.207349 39.653917 -36.317706 161.987477 -7.274441 -111.998666 -6.533722 -20.414825 2.718077 -2.326112 2.436511 -0.326658 145.120401 0.226448 179.199869 -11.659118 22.920152 6.371425 -31.499998 83.083012 -6.661349 7.394605 -19.082657 8.568208 -0.0 0.000858 0.000932 9.681573 -46.808391 7.221979 21.611618 72.849932 -129.318731 119.404931 48.218302 -22.203727 0.001882 8.2e-05 0.000941 13.822707 -60.677794 119.069039 102.230933 -25.078041 72.902732 -86.494999 -24.012085 165.154718
-19.5967 73.3711 -23.6854 -2.168658 60.55451 8.109836 -0.236343 12.555289 1.087102 3.249399 -9.262143 -0.181035 -15.902801 28.16325 -64.520782 44.743513 -10.953107 33.765804 0.001369 -0.0 -0.000233 -0.004358 0.0 -0.002117 -143.156917 39.097935 147.585962 125.077918 14.532093 -147.174165 121.445613 -16.994845 13.58143 -104.559429 56.613084 83.472481 -161.772854 0.529414 89.182223 -44.049897 -18.344465 13.319357 -46.20976 39.65244 36.318112 -2.429174 13.273839 0.423697 -169.08818 -33.247428 145.376088 -11.924928 33.629859 9.647245 -145.122133 1.079857 -179.469379 -145.13183 -50.812993 -167.343802 -45.213926 -48.152627 -43.993104 2.326884 -2.729446 -1.422027 155.548203 -3.80423 -161.900123 21.258954 16.190455 66.933709 -15.640884 -19.429654 89.05522 -168.155319 -18.667886 -143.96737 164.698503 -2.371761 -89.585971 165.362357 -6.57266 -84.149979 160.016216 -33.0118 -122.697687 55.386603 56.746248 -41.418384 82.841365 61.110293 -74.531968 42.124055 58.441043 -36.390156 145.118565 0.185426 179.186688 154.908351 -5.705049 178.482597 -5.662238 16.872234 -5.0886 -6.654118 13.829346 -3.619098 0.003384 2.2e-05 0.003384 6.008339 -47.183949 64.528309 69.196361 8.83102 2.928798 179.363002 21.582017 122.323778 0.003384 2.2e-05 0.003384 20.8424 -57.609065 -155.731319 -85.139515 -69.877236 133.329805 -142.626645 -29.100403 27.320513
-19.900499999999997 73.8426 -24.732499999999998 -1.69187 65.156458 8.584992 -0.192321 12.540168 0.033935 3.092407 -9.076813 0.35056 4.939605 24.019035 64.87884 -43.715054 -4.594402 -104.816391 8.9e-05 -0.0 -0.00314 8.9e-05 -0.0 -0.00314 -143.620381 38.233294 148.080367 159.294993 -29.470993 -139.638402 -177.681676 -4.564335 56.673108 -159.444588 16.963524 137.010462 178.850812 -18.54447 89.078749 -49.515629 -11.240875 5.209292 -145.338296 -6.264654 118.677528 -0.303405 19.307573 -5.27913 -151.476033 17.84155 137.538618 -5.012331 21.268826 4.799773 -0.014627 -1.323328 -0.414733 7.020623 29.71604 4.673022 10.623896 35.012297 9.12424 -148.500394 13.345055 -143.86516 -0.163213 -0.990036 0.218554 107.391328 -20.38516 -107.875494 98.105433 -16.885154 99.704029 -17.412239 -35.947729 -9.937394 -2.015747 -2.000627 0.275878 57.474217 29.710078 -51.458299 77.667072 43.030724 -64.53858 4.49986 16.138594 0.64355 173.039029 -44.087723 -144.929715 65.004991 63.298754 -57.699317 145.119659 0.310049 179.225829 150.358104 -35.132802 173.020617 140.595177 -1.002148 137.665757 25.465545 -40.293816 27.041106 0.000481 0.000311 -0.000619 4.12772 -49.152706 -180.0 -47.002652 -71.203083 -63.275133 95.119027 -4.533084 175.937962 0.003574 0.000312 0.001787 22.609667 -52.829413 18.630289 59.64365 73.639258 -22.9369 -37.969527 14.540515 -2.677379
-19.9089 74.35730000000001 -25.5826 0.128469 69.574858 10.091227 -0.76892 7.832166 -180.0 -3.167833 4.371182 179.226698 6.860975 32.467704 114.212027 -43.924218 32.756128 -140.285774 -0.001114 0.0 -0.001187 -0.00037 -0.0 0.003579 -159.212059 -46.728732 170.136352 -88.772741 -23.735167 -130.681464 -165.427508 -72.161155 -79.973324 -9.973779 -28.039868 -7.094693 81.972001 -50.090939 32.722854 -139.302986 14.173639 104.477462 -153.452185 -21.068075 121.744427 -162.745301 -19.47954 119.576328 23.905468 -61.333535 1.400196 -170.321872 -25.692664 144.185105 0.000652 0.063592 0.021661 -75.668548 78.823001 89.066263 -81.137168 -51.206255 -79.556 -75.404502 -53.892427 -76.065497 -3.53334 -62.111227 13.059709 78.045074 -14.590471 -178.364762 4.826352 33.636327 91.255445 -157.240912 -38.430872 -137.992583 7.759543 7.438709 -1.681775 21.079632 17.470596 -22.33285 -10.281478 -18.182713 4.58523 175.854966 -34.935096 -106.820373 -0.539465 -1.590151 0.295696 4.957433 21.319824 -4.411381 0.008226 -0.831271 0.260465 156.404094 -42.786026 -177.033506 18.362657 -31.548376 17.575101 159.211542 55.692997 149.739243 179.994793 75.751521 0.004595 -179.642843 29.074412 -0.167359 18.637819 65.273577 -88.258963 -174.109413 -23.939764 -25.166492 179.987858 75.749699 0.00999 -163.783755 21.98147 -0.0 73.08434 67.612022 32.965223 1.861962 4.392305 -95.100901
-19.7821 74.8447 -26.4602 1.24293 73.237165 10.722175 -0.375122 8.007053 -157.115343 -0.219766 4.971502 156.353066 7.013143 30.358817 101.36494 -45.935097 23.002434 -130.495181 -0.004229 -0.0 0.002474 0.000726 -0.0 -0.002784 -149.90532 22.421762 154.975264 -40.384078 -2.302688 -40.801267 21.30767 30.94654 -136.899426 -152.098645 30.274951 129.932918 -7.549699 7.247261 1.624219 6.870035 -6.725574 -0.288341 10.211478 -18.05072 -4.563271 -149.442362 0.920018 109.695882 -153.321505 13.629005 138.86214 -172.419022 -31.863539 143.638526 -145.119226 0.185841 -179.185687 -148.129282 -43.030663 -170.601936 25.91479 79.094034 10.834452 -148.573713 12.040619 -142.847344 78.728401 68.389457 -81.808002 145.579293 54.666157 -69.286397 168.601479 39.217221 122.688355 6.802607 30.457334 -1.987533 166.630872 -4.304829 -89.772656 44.310633 -18.27629 -10.451931 148.884165 -12.609444 -120.246756 178.684726 -44.518124 -114.656028 161.518779 -9.304066 -143.626201 42.503149 58.273165 -36.594727 0.014115 -1.323103 0.416208 156.374459 -25.095709 -174.792142 8.191241 -17.575832 7.729518 146.355305 9.624198 143.14305 -179.992103 75.750321 -0.005404 179.061337 29.582727 -1.157416 22.278593 58.566735 -18.328103 1.755277 -23.670902 -41.459657 179.981181 75.750592 0.012876 -161.758122 24.035291 0.0 30.035969 71.366899 -123.732917 105.958669 -51.666872 -150.438801
-19.5676 75.2876 -27.5608 3.158034 76.181997 12.217494 -0.667415 8.20761 -148.530489 1.015315 4.771684 148.252835 2.217255 38.162165 152.792431 -21.684154 53.261565 179.516859 0.002307 0.0 0.002249 0.002307 0.0 0.002249 0.163285 -0.990102 -0.21788 166.778101 -24.934082 100.51979 -70.4688 11.51368 -152.284247 175.155482 -66.835758 151.232235 51.060344 -41.203624 12.856698 -152.917355 -47.377387 136.107176 -138.49213 4.895631 114.864352 -119.699159 45.770001 94.988239 173.121653 -66.297669 137.611414 -172.420844 -31.328223 143.77626 -71.925869 72.973766 89.772027 5.862078 -0.004133 -4.468157 4.595301 13.360092 4.155619 -152.042303 27.366374 -146.872977 155.416979 -2.95127 -161.719105 66.263457 -2.789806 56.821801 171.630904 -33.615648 113.418597 7.075997 29.574861 -1.791405 -114.538934 -50.245465 -55.721548 21.248083 -38.389579 25.216127 166.821711 -43.973993 -122.06092 -83.921899 -68.56945 -29.679994 141.109186 35.601377 -129.17464 176.613317 -42.257595 -142.467237 75.674369 -72.116203 92.828898 47.523464 -81.784137 73.337505 145.541861 13.245483 142.148157 171.816585 71.006627 142.740456 -0.003517 0.000125 -0.001759 -1.620369 -47.793649 -180.0 -48.561443 -64.868237 -90.488581 33.787242 27.513042 -178.355114 0.004397 0.000125 0.004397 26.119747 -45.172627 0.0 -37.103881 61.32258 -37.578 141.193823 -57.364475 -112.101826
